<svg xmlns="http://www.w3.org/2000/svg" width="1100" height="770" viewBox="0 0 1100 770">
<rect width="100%" height="100%" fill="#ffffff"/>
<style>text{font-family:Segoe UI,Arial,sans-serif;font-size:13px;fill:#1f2937}.titulo{font-size:22px;font-weight:700}.sub{fill:#6b7280}.eixo{stroke:#d1d5db;stroke-width:1}.grade{stroke:#e5e7eb;stroke-width:1}.linha{fill:none;stroke-width:2.5}.barra{opacity:.82}</style>
<text class="titulo" x="32" y="34">Histórico Giuriolo - processo 704/2025</text>
<text class="sub" x="32" y="53">Atualizado em 02/06/2026 19:44</text>
<text x="32" y="77" font-weight="700">Fila para marcação 704/2025</text>
<text class="sub" x="840" y="77">último: 60 em 02/06/2026</text>
<line class="eixo" x1="90" y1="205" x2="1065" y2="205"/>
<line class="eixo" x1="90" y1="80" x2="90" y2="205"/>
<line class="grade" x1="90" y1="80" x2="1065" y2="80"/>
<text class="sub" x="32" y="85">166</text>
<text class="sub" x="32" y="205">60</text>
<path class="linha" stroke="#2563eb" d="M90.0,88.6 L99.9,88.6 L109.9,88.6 L119.8,88.6 L129.8,88.6 L139.7,88.6 L149.7,88.6 L159.6,88.6 L169.6,88.6 L179.5,88.6 L189.5,113.0 L199.4,113.0 L209.4,113.0 L219.3,113.0 L229.3,113.0 L239.2,179.1 L249.2,181.1 L259.1,192.3 L269.1,192.3 L279.0,192.3 L289.0,192.3 L298.9,192.3 L308.9,192.3 L318.8,192.3 L328.8,192.3 L338.7,192.3 L348.7,192.3 L358.6,192.3 L368.6,192.3 L378.5,192.3 L388.5,192.3 L398.4,192.3 L408.4,192.3 L418.3,192.3 L428.3,192.3 L438.2,192.3 L448.2,192.3 L458.1,192.3 L468.1,192.3 L478.0,192.3 L488.0,192.3 L497.9,192.3 L507.9,192.3 L517.8,192.3 L527.8,192.3 L537.7,192.3 L547.7,192.3 L567.6,192.3 L577.5,192.3 L587.4,192.3 L597.4,192.3 L607.3,192.3 L617.3,191.3 L627.2,191.3 L637.2,191.3 L647.1,191.3 L657.1,191.3 L667.0,191.3 L677.0,191.3 L686.9,191.3 L696.9,191.3 L706.8,191.3 L716.8,191.3 L726.7,191.3 L736.7,191.3 L746.6,191.3 L756.6,191.3 L776.5,191.3 L786.4,191.3 L1045.1,196.4 L1055.1,196.4 L1065.0,196.4"/>
<circle cx="1065.0" cy="196.4" r="4" fill="#2563eb"/>
<text class="sub" x="90" y="227">24/02/2026</text>
<text class="sub" text-anchor="end" x="1065" y="227">02/06/2026</text>
<text x="32" y="247" font-weight="700">Fila para sentença</text>
<text class="sub" x="840" y="247">último: 655 em 02/06/2026</text>
<line class="eixo" x1="90" y1="375" x2="1065" y2="375"/>
<line class="eixo" x1="90" y1="250" x2="90" y2="375"/>
<line class="grade" x1="90" y1="250" x2="1065" y2="250"/>
<text class="sub" x="32" y="255">1151</text>
<text class="sub" x="32" y="375">655</text>
<path class="linha" stroke="#16a34a" d="M90.0,258.6 L99.9,258.6 L109.9,266.4 L119.8,266.4 L129.8,266.4 L139.7,266.4 L149.7,269.5 L159.6,271.2 L169.6,276.0 L179.5,276.0 L189.5,278.2 L199.4,278.2 L209.4,278.2 L219.3,278.8 L229.3,288.4 L239.2,306.6 L249.2,307.1 L259.1,310.3 L269.1,310.3 L279.0,310.3 L289.0,310.3 L298.9,311.6 L308.9,311.6 L318.8,312.3 L328.8,312.3 L338.7,312.3 L348.7,312.3 L358.6,312.3 L368.6,312.3 L378.5,312.3 L388.5,312.3 L398.4,314.5 L408.4,314.5 L418.3,314.5 L428.3,316.6 L438.2,319.2 L448.2,320.5 L458.1,320.8 L468.1,320.8 L478.0,320.8 L488.0,320.8 L497.9,320.8 L507.9,321.0 L517.8,321.2 L527.8,322.9 L537.7,323.6 L547.7,323.6 L567.6,323.8 L577.5,323.8 L587.4,325.5 L597.4,326.4 L607.3,326.4 L617.3,329.7 L627.2,332.1 L637.2,332.1 L647.1,332.1 L657.1,333.8 L667.0,346.2 L677.0,345.7 L686.9,346.0 L696.9,346.0 L706.8,346.0 L716.8,346.0 L726.7,346.0 L736.7,346.0 L746.6,346.0 L756.6,346.0 L776.5,346.0 L786.4,346.0 L1045.1,366.4 L1055.1,366.4 L1065.0,366.4"/>
<circle cx="1065.0" cy="366.4" r="4" fill="#16a34a"/>
<text class="sub" x="90" y="397">24/02/2026</text>
<text class="sub" text-anchor="end" x="1065" y="397">02/06/2026</text>
<text x="32" y="417" font-weight="700">PROCEDIMENTO DEFINITO</text>
<text class="sub" x="840" y="417">último: 1398 em 02/06/2026</text>
<line class="eixo" x1="90" y1="545" x2="1065" y2="545"/>
<line class="eixo" x1="90" y1="420" x2="90" y2="545"/>
<line class="grade" x1="90" y1="420" x2="1065" y2="420"/>
<text class="sub" x="32" y="425">1398</text>
<text class="sub" x="32" y="545">1108</text>
<path class="linha" stroke="#dc2626" d="M90.0,536.4 L99.9,536.4 L109.9,523.0 L119.8,523.0 L129.8,523.0 L139.7,523.0 L149.7,517.8 L159.6,514.8 L169.6,506.7 L179.5,506.7 L189.5,503.3 L199.4,503.3 L209.4,503.3 L219.3,502.2 L229.3,501.8 L239.2,494.8 L249.2,494.8 L259.1,494.8 L269.1,493.3 L279.0,493.3 L289.0,493.3 L298.9,491.0 L308.9,491.0 L318.8,489.9 L328.8,489.9 L338.7,489.9 L348.7,489.9 L358.6,489.9 L368.6,489.9 L378.5,489.9 L388.5,489.9 L398.4,486.2 L408.4,486.2 L418.3,486.2 L428.3,482.5 L438.2,478.4 L448.2,476.2 L458.1,475.8 L468.1,475.8 L478.0,475.8 L488.0,475.8 L497.9,475.8 L507.9,475.4 L517.8,475.1 L527.8,472.5 L537.7,471.4 L547.7,471.4 L567.6,471.4 L577.5,471.4 L587.4,468.4 L597.4,466.9 L607.3,466.9 L617.3,460.9 L627.2,456.9 L637.2,456.9 L647.1,456.9 L657.1,453.9 L667.0,451.3 L677.0,451.3 L686.9,450.9 L696.9,450.9 L706.8,450.9 L716.8,450.9 L726.7,450.9 L736.7,450.9 L746.6,450.9 L756.6,450.9 L776.5,450.9 L786.4,450.9 L1045.1,428.6 L1055.1,428.6 L1065.0,428.6"/>
<circle cx="1065.0" cy="428.6" r="4" fill="#dc2626"/>
<text class="sub" x="90" y="567">24/02/2026</text>
<text class="sub" text-anchor="end" x="1065" y="567">02/06/2026</text>
<text x="32" y="587" font-weight="700">Sentenças do dia</text>
<text class="sub" x="840" y="587">último: 0 em 02/06/2026</text>
<line class="eixo" x1="90" y1="715" x2="1065" y2="715"/>
<line class="eixo" x1="90" y1="590" x2="90" y2="715"/>
<line class="grade" x1="90" y1="590" x2="1065" y2="590"/>
<text class="sub" x="32" y="595">60</text>
<text class="sub" x="32" y="715">0</text>
<rect class="barra" x="85.4" y="661.0" width="9.2" height="54.0" fill="#7c3aed"><title>24/02/2026: 28</title></rect>
<rect class="barra" x="95.3" y="684.1" width="9.2" height="30.9" fill="#7c3aed"><title>25/02/2026: 16</title></rect>
<rect class="barra" x="105.3" y="639.8" width="9.2" height="75.2" fill="#7c3aed"><title>26/02/2026: 39</title></rect>
<rect class="barra" x="115.2" y="693.8" width="9.2" height="21.2" fill="#7c3aed"><title>27/02/2026: 11</title></rect>
<rect class="barra" x="125.2" y="711.1" width="9.2" height="3.9" fill="#7c3aed"><title>28/02/2026: 2</title></rect>
<rect class="barra" x="135.1" y="715.0" width="9.2" height="1.0" fill="#7c3aed"><title>01/03/2026: 0</title></rect>
<rect class="barra" x="145.1" y="684.1" width="9.2" height="30.9" fill="#7c3aed"><title>02/03/2026: 16</title></rect>
<rect class="barra" x="155.0" y="697.6" width="9.2" height="17.4" fill="#7c3aed"><title>03/03/2026: 9</title></rect>
<rect class="barra" x="165.0" y="672.6" width="9.2" height="42.4" fill="#7c3aed"><title>04/03/2026: 22</title></rect>
<rect class="barra" x="174.9" y="715.0" width="9.2" height="1.0" fill="#7c3aed"><title>05/03/2026: 0</title></rect>
<rect class="barra" x="184.9" y="697.6" width="9.2" height="17.4" fill="#7c3aed"><title>06/03/2026: 9</title></rect>
<rect class="barra" x="194.8" y="715.0" width="9.2" height="1.0" fill="#7c3aed"><title>07/03/2026: 0</title></rect>
<rect class="barra" x="204.8" y="715.0" width="9.2" height="1.0" fill="#7c3aed"><title>08/03/2026: 0</title></rect>
<rect class="barra" x="214.7" y="709.2" width="9.2" height="5.8" fill="#7c3aed"><title>09/03/2026: 3</title></rect>
<rect class="barra" x="224.7" y="713.1" width="9.2" height="1.9" fill="#7c3aed"><title>10/03/2026: 1</title></rect>
<rect class="barra" x="234.6" y="678.3" width="9.2" height="36.7" fill="#7c3aed"><title>11/03/2026: 19</title></rect>
<rect class="barra" x="244.6" y="715.0" width="9.2" height="1.0" fill="#7c3aed"><title>12/03/2026: 0</title></rect>
<rect class="barra" x="254.5" y="618.5" width="9.2" height="96.5" fill="#7c3aed"><title>13/03/2026: 50</title></rect>
<rect class="barra" x="264.5" y="715.0" width="9.2" height="1.0" fill="#7c3aed"><title>14/03/2026: 0</title></rect>
<rect class="barra" x="274.4" y="715.0" width="9.2" height="1.0" fill="#7c3aed"><title>15/03/2026: 0</title></rect>
<rect class="barra" x="284.4" y="703.4" width="9.2" height="11.6" fill="#7c3aed"><title>16/03/2026: 6</title></rect>
<rect class="barra" x="294.3" y="715.0" width="9.2" height="1.0" fill="#7c3aed"><title>17/03/2026: 0</title></rect>
<rect class="barra" x="304.3" y="715.0" width="9.2" height="1.0" fill="#7c3aed"><title>18/03/2026: 0</title></rect>
<rect class="barra" x="314.2" y="709.2" width="9.2" height="5.8" fill="#7c3aed"><title>19/03/2026: 3</title></rect>
<rect class="barra" x="324.2" y="715.0" width="9.2" height="1.0" fill="#7c3aed"><title>20/03/2026: 0</title></rect>
<rect class="barra" x="334.1" y="715.0" width="9.2" height="1.0" fill="#7c3aed"><title>21/03/2026: 0</title></rect>
<rect class="barra" x="344.1" y="715.0" width="9.2" height="1.0" fill="#7c3aed"><title>22/03/2026: 0</title></rect>
<rect class="barra" x="354.0" y="715.0" width="9.2" height="1.0" fill="#7c3aed"><title>23/03/2026: 0</title></rect>
<rect class="barra" x="364.0" y="715.0" width="9.2" height="1.0" fill="#7c3aed"><title>24/03/2026: 0</title></rect>
<rect class="barra" x="373.9" y="715.0" width="9.2" height="1.0" fill="#7c3aed"><title>25/03/2026: 0</title></rect>
<rect class="barra" x="383.9" y="715.0" width="9.2" height="1.0" fill="#7c3aed"><title>26/03/2026: 0</title></rect>
<rect class="barra" x="393.8" y="697.6" width="9.2" height="17.4" fill="#7c3aed"><title>27/03/2026: 9</title></rect>
<rect class="barra" x="403.8" y="715.0" width="9.2" height="1.0" fill="#7c3aed"><title>28/03/2026: 0</title></rect>
<rect class="barra" x="413.7" y="715.0" width="9.2" height="1.0" fill="#7c3aed"><title>29/03/2026: 0</title></rect>
<rect class="barra" x="423.7" y="688.0" width="9.2" height="27.0" fill="#7c3aed"><title>30/03/2026: 14</title></rect>
<rect class="barra" x="433.6" y="697.6" width="9.2" height="17.4" fill="#7c3aed"><title>31/03/2026: 9</title></rect>
<rect class="barra" x="443.6" y="703.4" width="9.2" height="11.6" fill="#7c3aed"><title>01/04/2026: 6</title></rect>
<rect class="barra" x="453.5" y="715.0" width="9.2" height="1.0" fill="#7c3aed"><title>02/04/2026: 0</title></rect>
<rect class="barra" x="463.5" y="713.1" width="9.2" height="1.9" fill="#7c3aed"><title>03/04/2026: 1</title></rect>
<rect class="barra" x="473.4" y="715.0" width="9.2" height="1.0" fill="#7c3aed"><title>04/04/2026: 0</title></rect>
<rect class="barra" x="483.4" y="715.0" width="9.2" height="1.0" fill="#7c3aed"><title>05/04/2026: 0</title></rect>
<rect class="barra" x="493.3" y="715.0" width="9.2" height="1.0" fill="#7c3aed"><title>06/04/2026: 0</title></rect>
<rect class="barra" x="503.3" y="713.1" width="9.2" height="1.9" fill="#7c3aed"><title>07/04/2026: 1</title></rect>
<rect class="barra" x="513.2" y="713.1" width="9.2" height="1.9" fill="#7c3aed"><title>08/04/2026: 1</title></rect>
<rect class="barra" x="523.2" y="701.5" width="9.2" height="13.5" fill="#7c3aed"><title>09/04/2026: 7</title></rect>
<rect class="barra" x="533.1" y="709.2" width="9.2" height="5.8" fill="#7c3aed"><title>10/04/2026: 3</title></rect>
<rect class="barra" x="543.0" y="715.0" width="9.2" height="1.0" fill="#7c3aed"><title>11/04/2026: 0</title></rect>
<rect class="barra" x="562.9" y="715.0" width="9.2" height="1.0" fill="#7c3aed"><title>13/04/2026: 0</title></rect>
<rect class="barra" x="572.9" y="715.0" width="9.2" height="1.0" fill="#7c3aed"><title>14/04/2026: 0</title></rect>
<rect class="barra" x="582.8" y="699.6" width="9.2" height="15.4" fill="#7c3aed"><title>15/04/2026: 8</title></rect>
<rect class="barra" x="592.8" y="707.3" width="9.2" height="7.7" fill="#7c3aed"><title>16/04/2026: 4</title></rect>
<rect class="barra" x="602.7" y="715.0" width="9.2" height="1.0" fill="#7c3aed"><title>17/04/2026: 0</title></rect>
<rect class="barra" x="612.7" y="684.1" width="9.2" height="30.9" fill="#7c3aed"><title>18/04/2026: 16</title></rect>
<rect class="barra" x="622.6" y="693.8" width="9.2" height="21.2" fill="#7c3aed"><title>19/04/2026: 11</title></rect>
<rect class="barra" x="632.6" y="715.0" width="9.2" height="1.0" fill="#7c3aed"><title>20/04/2026: 0</title></rect>
<rect class="barra" x="642.5" y="715.0" width="9.2" height="1.0" fill="#7c3aed"><title>21/04/2026: 0</title></rect>
<rect class="barra" x="652.5" y="699.6" width="9.2" height="15.4" fill="#7c3aed"><title>22/04/2026: 8</title></rect>
<rect class="barra" x="662.4" y="701.5" width="9.2" height="13.5" fill="#7c3aed"><title>23/04/2026: 7</title></rect>
<rect class="barra" x="672.4" y="715.0" width="9.2" height="1.0" fill="#7c3aed"><title>24/04/2026: 0</title></rect>
<rect class="barra" x="682.3" y="713.1" width="9.2" height="1.9" fill="#7c3aed"><title>25/04/2026: 1</title></rect>
<rect class="barra" x="692.3" y="715.0" width="9.2" height="1.0" fill="#7c3aed"><title>26/04/2026: 0</title></rect>
<rect class="barra" x="702.2" y="715.0" width="9.2" height="1.0" fill="#7c3aed"><title>27/04/2026: 0</title></rect>
<rect class="barra" x="712.2" y="715.0" width="9.2" height="1.0" fill="#7c3aed"><title>28/04/2026: 0</title></rect>
<rect class="barra" x="722.1" y="715.0" width="9.2" height="1.0" fill="#7c3aed"><title>29/04/2026: 0</title></rect>
<rect class="barra" x="732.1" y="715.0" width="9.2" height="1.0" fill="#7c3aed"><title>30/04/2026: 0</title></rect>
<rect class="barra" x="742.0" y="715.0" width="9.2" height="1.0" fill="#7c3aed"><title>01/05/2026: 0</title></rect>
<rect class="barra" x="752.0" y="715.0" width="9.2" height="1.0" fill="#7c3aed"><title>02/05/2026: 0</title></rect>
<rect class="barra" x="771.9" y="715.0" width="9.2" height="1.0" fill="#7c3aed"><title>04/05/2026: 0</title></rect>
<rect class="barra" x="781.8" y="715.0" width="9.2" height="1.0" fill="#7c3aed"><title>05/05/2026: 0</title></rect>
<rect class="barra" x="1040.5" y="599.3" width="9.2" height="115.7" fill="#7c3aed"><title>31/05/2026: 60</title></rect>
<rect class="barra" x="1050.4" y="715.0" width="9.2" height="1.0" fill="#7c3aed"><title>01/06/2026: 0</title></rect>
<rect class="barra" x="1060.4" y="715.0" width="9.2" height="1.0" fill="#7c3aed"><title>02/06/2026: 0</title></rect>
<text class="sub" x="90" y="737">24/02/2026</text>
<text class="sub" text-anchor="end" x="1065" y="737">02/06/2026</text>
</svg>